<svg width="77" height="22" viewBox="0 0 77 22" fill="none" xmlns="http://www.w3.org/2000/svg">
<path d="M8.29167 12.442L12.3534 0.548212H16.3911L10.1663 17.4475H6.24879L0 0.548212H4.18188L8.29167 12.442Z" fill="#0066FF"/>
<path d="M21.0972 14.468C21.8502 14.468 22.4831 14.2138 22.9959 13.7053C23.5246 13.1968 23.789 12.4659 23.789 11.5125C23.789 10.559 23.5246 9.83604 22.9959 9.34345C22.4831 8.83496 21.8502 8.58072 21.0972 8.58072C20.3601 8.58072 19.7273 8.83496 19.1985 9.34345C18.6698 9.85193 18.4054 10.5749 18.4054 11.5125C18.4054 12.45 18.6698 13.1809 19.1985 13.7053C19.7273 14.2138 20.3601 14.468 21.0972 14.468ZM21.0972 5.24377C22.9077 5.24377 24.4139 5.83171 25.6155 7.00759C26.8333 8.18346 27.4421 9.68509 27.4421 11.5125C27.4421 13.3398 26.8333 14.8494 25.6155 16.0412C24.4139 17.217 22.9077 17.805 21.0972 17.805C19.3027 17.805 17.7965 17.2091 16.5788 16.0173C15.3611 14.8256 14.7523 13.3239 14.7523 11.5125C14.7523 9.70098 15.3611 8.2073 16.5788 7.03142C17.7965 5.83965 19.3027 5.24377 21.0972 5.24377Z" fill="#0066FF"/>
<path d="M34.312 14.468C35.0651 14.468 35.698 14.2138 36.2107 13.7053C36.7394 13.1968 37.0038 12.4659 37.0038 11.5125C37.0038 10.559 36.7394 9.83604 36.2107 9.34345C35.698 8.83496 35.0651 8.58072 34.312 8.58072C33.575 8.58072 32.9421 8.83496 32.4134 9.34345C31.8846 9.85193 31.6202 10.5749 31.6202 11.5125C31.6202 12.45 31.8846 13.1809 32.4134 13.7053C32.9421 14.2138 33.575 14.468 34.312 14.468ZM34.312 5.24377C36.1226 5.24377 37.6287 5.83171 38.8304 7.00759C40.0481 8.18346 40.657 9.68509 40.657 11.5125C40.657 13.3398 40.0481 14.8494 38.8304 16.0412C37.6287 17.217 36.1226 17.805 34.312 17.805C32.5175 17.805 31.0114 17.2091 29.7937 16.0173C28.576 14.8256 27.9671 13.3239 27.9671 11.5125C27.9671 9.70098 28.576 8.2073 29.7937 7.03142C31.0114 5.83965 32.5175 5.24377 34.312 5.24377Z" fill="#0066FF"/>
<path d="M53.7997 0.190683V15.3261C53.7997 16.0412 53.8317 16.7483 53.8958 17.4475H50.3869C50.3228 17.0661 50.2908 16.6847 50.2908 16.3034C50.0024 16.7165 49.5697 17.0581 48.9929 17.3283C48.4321 17.5825 47.7993 17.7096 47.0943 17.7096C45.3959 17.7096 43.9859 17.1297 42.8643 15.9697C41.7427 14.7938 41.1819 13.3001 41.1819 11.4886C41.1819 9.70892 41.7267 8.23908 42.8162 7.07909C43.9058 5.90322 45.2917 5.31528 46.9741 5.31528C48.6084 5.31528 49.6819 5.72048 50.1946 6.53088V0.190683H53.7997ZM45.6282 9.34345C45.1155 9.85193 44.8591 10.5749 44.8591 11.5125C44.8591 12.45 45.1155 13.1809 45.6282 13.7053C46.1569 14.2138 46.7979 14.468 47.5509 14.468C48.304 14.468 48.9369 14.2138 49.4496 13.7053C49.9783 13.1809 50.2427 12.45 50.2427 11.5125C50.2427 10.5749 49.9783 9.85193 49.4496 9.34345C48.9369 8.83496 48.304 8.58072 47.5509 8.58072C46.7979 8.58072 46.1569 8.83496 45.6282 9.34345Z" fill="#0066FF"/>
<path d="M62.932 8.65222H60.3363V17.4475H56.6832V8.65222H54.7845V5.6013H56.6832V4.57638C56.6832 3.19393 57.0838 2.08956 57.8849 1.26327C58.702 0.421091 59.8236 0 61.2496 0C62.0508 0 62.6276 0.0873965 62.9801 0.262189V3.21777C62.6596 3.13832 62.2991 3.09859 61.8985 3.09859C61.482 3.09859 61.1134 3.21777 60.793 3.45612C60.4886 3.69448 60.3363 4.10762 60.3363 4.69556V5.6013H62.932V8.65222Z" fill="#0066FF"/>
<path d="M69.2908 22H65.4454L68.1612 15.8505L63.1382 5.6013H67.2239L70.132 11.9415L72.7757 5.6013H76.6452L69.2908 22Z" fill="#0066FF"/>
</svg>
